<?xml version="1.0" encoding="UTF-8" standalone="no"?>
<svg
   width="100"
   height="100"
   viewBox="0 0 100 100"
   fill="none"
   version="1.1"
   id="svg1"
   sodipodi:docname="icon.svg"
   inkscape:version="1.4.3 (0d15f75, 2025-12-25)"
   xmlns:inkscape="http://www.inkscape.org/namespaces/inkscape"
   xmlns:sodipodi="http://sodipodi.sourceforge.net/DTD/sodipodi-0.dtd"
   xmlns="http://www.w3.org/2000/svg"
   xmlns:svg="http://www.w3.org/2000/svg">
  <defs
     id="defs1" />
  <sodipodi:namedview
     id="namedview1"
     pagecolor="#ffffff"
     bordercolor="#000000"
     borderopacity="0.25"
     inkscape:showpageshadow="2"
     inkscape:pageopacity="0.0"
     inkscape:pagecheckerboard="0"
     inkscape:deskcolor="#d1d1d1"
     inkscape:zoom="3.92"
     inkscape:cx="57.780612"
     inkscape:cy="64.413265"
     inkscape:window-width="3440"
     inkscape:window-height="1369"
     inkscape:window-x="-8"
     inkscape:window-y="-8"
     inkscape:window-maximized="1"
     inkscape:current-layer="svg1" />
  <rect
     width="100"
     height="100"
     rx="16"
     fill="#404040"
     id="rect1" />
  <path
     style="font-weight:bold;font-size:53.3333px;font-family:'FiraMono Nerd Font Mono';-inkscape-font-specification:'FiraMono Nerd Font Mono Bold';letter-spacing:-8px;dominant-baseline:middle;text-anchor:middle;fill:#e5e5e5"
     d="m 34.90665,23.360018 c -9.813328,0 -13.546659,2.613332 -12.746659,9.866661 l 0.799999,7.626662 c 0.426667,3.999997 -2.826665,5.226663 -7.359995,5.226663 v 6.826663 c 4.586664,0 7.786662,1.226666 7.359995,5.226664 l -0.799999,7.679995 c -0.746666,7.146662 2.933331,9.813327 12.746659,9.813327 V 69.75999 c -3.253331,0 -5.226664,-0.693333 -4.959997,-3.359998 l 0.799999,-7.893328 c 0.64,-6.026663 -2.559998,-8.159995 -8.266661,-9.013328 5.386663,-0.8 8.906661,-3.039998 8.266661,-9.013328 l -0.799999,-7.893329 c -0.266667,-2.666665 1.653332,-3.359998 4.959997,-3.359998 z m 15.093339,16.053324 c -3.146665,0 -5.599997,2.559998 -5.599997,5.599996 0,3.039999 2.453332,5.546664 5.599997,5.546664 3.146664,0 5.546663,-2.506665 5.546663,-5.546664 0,-3.039998 -2.399999,-5.599996 -5.546663,-5.599996 z m 0,18.239989 c -3.199999,0 -5.599997,2.399998 -5.599997,5.49333 0,1.973332 0.906666,3.626664 2.399998,4.639997 l -2.613331,10.933327 h 5.49333 l 3.679998,-8.426662 c 1.439999,-3.253331 2.186665,-5.119997 2.186665,-7.093329 0,-3.146665 -2.346665,-5.546663 -5.546663,-5.546663 z M 65.093327,23.360018 v 5.866663 c 3.253332,0 5.226664,0.693333 4.959997,3.359998 l -0.799999,7.893329 c -0.64,6.026663 2.613331,8.159995 8.319995,9.013328 -5.439997,0.799999 -8.959995,3.039998 -8.319995,9.013328 l 0.799999,7.893328 c 0.266667,2.666665 -1.653332,3.359998 -4.959997,3.359998 v 5.866663 c 9.813328,0 13.546659,-2.613331 12.746659,-9.86666 l -0.799999,-7.626662 c -0.426667,-3.999998 2.879998,-5.226664 7.359995,-5.226664 v -6.826663 c -4.53333,0 -7.786662,-1.226666 -7.359995,-5.226663 l 0.799999,-7.679996 c 0.746666,-7.146662 -2.933331,-9.813327 -12.746659,-9.813327 z"
     id="text1"
     aria-label="{;}" />
</svg>
